<?xml version="1.0" encoding="UTF-8" standalone="no"?>
<svg width="256px" height="163px" viewBox="0 0 256 163" version="1.1" xmlns="http://www.w3.org/2000/svg" xmlns:xlink="http://www.w3.org/1999/xlink">
    <!-- Generator: Sketch 3.6.1 (26313) - http://www.bohemiancoding.com/sketch -->
    <title>Multiversion</title>
    <desc>Created with Sketch.</desc>
    <defs></defs>
    <g id="Page-1" stroke="none" stroke-width="1" fill="none" fill-rule="evenodd">
        <g id="final" transform="translate(-273.000000, -680.000000)" fill="#0678BE">
            <path d="M319.545455,842.909091 C293.83911,842.909091 273,822.069981 273,796.363636 C273,778.977182 282.532802,763.817233 296.656801,755.825393 C296.403395,753.858795 296.272727,751.853748 296.272727,749.818182 C296.272727,724.111837 317.111837,703.272727 342.818182,703.272727 C348.260632,703.272727 353.484914,704.206814 358.339456,705.923417 C371.139232,690.110069 390.707131,680 412.636364,680 C451.195881,680 482.454545,711.258665 482.454545,749.818182 C508.16089,749.818182 529,770.657292 529,796.363636 C529,822.069981 508.16089,842.909091 482.454545,842.909091 L319.545455,842.909091 Z M428.766292,721.25416 C422.230646,717.184796 416.064943,715.581713 409.89924,711.512349 C406.076504,708.922754 400.773999,702.75705 396.334693,697.454545 C395.471494,705.963216 392.881899,709.41601 389.922361,711.882291 C383.633344,716.814854 379.687294,718.294622 374.261475,721.25416 C369.698854,723.597127 344.912727,738.394815 344.912727,770.209844 C344.912727,802.024873 371.671879,825.454545 401.390569,825.454545 C431.109259,825.454545 456.881899,803.874584 456.881899,771.196357 C456.881899,738.518129 432.712342,723.720441 428.766292,721.25416 Z M437.239827,769.739827 L437.239827,762.439827 C437.239827,761.679653 436.32684,761.22316 435.718507,761.679653 C428.266667,767.610173 414.883333,770.65184 401.5,770.65184 C388.268507,770.65184 374.885173,767.610173 367.281493,761.679653 C366.67316,761.22316 365.760173,761.679653 365.760173,762.439827 L365.760173,769.739827 L365.760173,770.34816 C365.760173,778.864827 381.729653,785.860173 401.5,785.860173 C421.270347,785.860173 437.239827,778.864827 437.239827,770.19632 L437.239827,769.739827 Z M437.239827,790.118507 L437.239827,782.818507 C437.239827,782.058333 436.32684,781.60184 435.718507,782.058333 C428.266667,787.989827 414.883333,791.031493 401.5,791.031493 C388.268507,791.031493 374.885173,787.989827 367.281493,782.058333 C366.67316,781.60184 365.760173,782.058333 365.760173,782.818507 L365.760173,790.118507 L365.760173,790.72684 C365.760173,799.243507 381.729653,806.239827 401.5,806.239827 C421.270347,806.239827 437.239827,799.243507 437.239827,790.575 L437.239827,790.118507 Z M401.5,766.089827 C381.76372,766.089827 365.760173,759.075013 365.760173,750.425 C365.760173,741.774987 381.76372,734.760173 401.5,734.760173 C421.23628,734.760173 437.239827,741.774987 437.239827,750.425 C437.239827,759.075013 421.23628,766.089827 401.5,766.089827 Z" id="Multiversion"></path>
        </g>
    </g>
</svg>