<?xml version="1.0" encoding="UTF-8" standalone="no"?>
<svg width="256px" height="163px" viewBox="0 0 256 163" version="1.1" xmlns="http://www.w3.org/2000/svg" xmlns:xlink="http://www.w3.org/1999/xlink">
    <!-- Generator: Sketch 3.6.1 (26313) - http://www.bohemiancoding.com/sketch -->
    <title>CouchDB Replication</title>
    <desc>Created with Sketch.</desc>
    <defs></defs>
    <g id="Page-1" stroke="none" stroke-width="1" fill="none" fill-rule="evenodd">
        <g id="final" transform="translate(-673.000000, -680.000000)" fill="#0678BE">
            <path d="M846,803 L756,803 L756,813 L731,813 L731,763 L746,763 L746,733 L856,733 L856,763 L871,763 L871,813 L846,813 L846,803 Z M719.545455,842.909091 C693.83911,842.909091 673,822.069981 673,796.363636 C673,778.977182 682.532802,763.817233 696.656801,755.825393 C696.403395,753.858795 696.272727,751.853748 696.272727,749.818182 C696.272727,724.111837 717.111837,703.272727 742.818182,703.272727 C748.260632,703.272727 753.484914,704.206814 758.339456,705.923417 C771.139232,690.110069 790.707131,680 812.636364,680 C851.195881,680 882.454545,711.258665 882.454545,749.818182 C908.16089,749.818182 929,770.657292 929,796.363636 C929,822.069981 908.16089,842.909091 882.454545,842.909091 L719.545455,842.909091 Z M821.4816,769 C821.4816,767.7216 821.3504,766.4816 821.1224,765.2688 L829.9656,758.3312 L824.9656,749.672 L814.5288,753.8624 C812.6504,752.244 810.4632,750.9784 808.0752,750.1376 L806.4816,739 L796.4816,739 L794.8912,750.1344 C792.5032,750.9752 790.316,752.2408 788.4376,753.856 L778,749.6656 L773,758.3248 L781.844,765.2656 C781.6128,766.4784 781.4816,767.7216 781.4816,769 C781.4816,770.2784 781.6128,771.5184 781.8408,772.7312 L773,779.6688 L778,788.3312 L788.4376,784.1408 C790.316,785.7592 792.5032,787.0216 794.8912,787.8624 L796.4816,799 L806.4816,799 L808.072,787.8656 C810.46,787.0248 812.6472,785.7592 814.5288,784.1408 L824.9656,788.3312 L829.9656,779.672 L821.1224,772.7312 C821.3504,771.5184 821.4816,770.2784 821.4816,769 Z M801.4816,779 C795.96,779 791.4816,774.5216 791.4816,769 C791.4816,763.4784 795.96,759 801.4816,759 C807.0032,759 811.4816,763.4784 811.4816,769 C811.4816,774.5216 807.0032,779 801.4816,779 Z" id="CouchDB-Replication"></path>
        </g>
    </g>
</svg>