<?xml version="1.0" encoding="UTF-8" standalone="no"?>
<svg width="256px" height="163px" viewBox="0 0 256 163" version="1.1" xmlns="http://www.w3.org/2000/svg" xmlns:xlink="http://www.w3.org/1999/xlink">
    <!-- Generator: Sketch 3.6.1 (26313) - http://www.bohemiancoding.com/sketch -->
    <title>RELAXed Web Services</title>
    <desc>Created with Sketch.</desc>
    <defs></defs>
    <g id="Page-1" stroke="none" stroke-width="1" fill="none" fill-rule="evenodd">
        <g id="final" transform="translate(-273.000000, -280.000000)" fill="#0678BE">
            <path d="M395.871269,382.256707 C397.079679,384.550508 397.763636,387.163562 397.763636,389.936364 C397.763636,399.049062 390.376335,406.436364 381.263636,406.436364 C372.150938,406.436364 364.763636,399.049062 364.763636,389.936364 C364.763636,380.823665 372.150938,373.436364 381.263636,373.436364 C384.218102,373.436364 386.991202,374.212878 389.389982,375.572951 L406.873972,358.088961 C405.530163,355.700866 404.763636,352.944495 404.763636,350.009091 C404.763636,340.896393 412.150938,333.509091 421.263636,333.509091 C430.376335,333.509091 437.763636,340.896393 437.763636,350.009091 C437.763636,359.121789 430.376335,366.509091 421.263636,366.509091 C418.471649,366.509091 415.841628,365.815635 413.536411,364.591565 L395.871269,382.256707 Z M273,396.363636 C273,378.977182 282.532802,363.817233 296.656801,355.825393 C296.403395,353.858795 296.272727,351.853748 296.272727,349.818182 C296.272727,324.111837 317.111837,303.272727 342.818182,303.272727 C348.260632,303.272727 353.484914,304.206814 358.339456,305.923417 C371.139232,290.110069 390.707131,280 412.636364,280 C451.195881,280 482.454545,311.258665 482.454545,349.818182 C508.16089,349.818182 529,370.657292 529,396.363636 C529,422.069981 508.16089,442.909091 482.454545,442.909091 L319.545455,442.909091 C293.83911,442.909091 273,422.069981 273,396.363636 Z M428.766292,321.25416 C422.230646,317.184796 416.064943,315.581713 409.89924,311.512349 C406.076504,308.922754 400.773999,302.75705 396.334693,297.454545 C395.471494,305.963216 392.881899,309.41601 389.922361,311.882291 C383.633344,316.814854 379.687294,318.294622 374.261475,321.25416 C369.698854,323.597127 344.912727,338.394815 344.912727,370.209844 C344.912727,402.024873 371.671879,425.454545 401.390569,425.454545 C431.109259,425.454545 456.881899,403.874584 456.881899,371.196357 C456.881899,338.518129 432.712342,323.720441 428.766292,321.25416 Z" id="RELAXed-Web-Services"></path>
        </g>
    </g>
</svg>