<?xml version="1.0" encoding="UTF-8" standalone="no"?>
<svg width="256px" height="163px" viewBox="0 0 256 163" version="1.1" xmlns="http://www.w3.org/2000/svg" xmlns:xlink="http://www.w3.org/1999/xlink">
    <!-- Generator: Sketch 3.6.1 (26313) - http://www.bohemiancoding.com/sketch -->
    <title>Replication</title>
    <desc>Created with Sketch.</desc>
    <defs></defs>
    <g id="Page-1" stroke="none" stroke-width="1" fill="none" fill-rule="evenodd">
        <g id="final" transform="translate(-1073.000000, -680.000000)" fill="#0678BE">
            <path d="M1119.54545,842.909091 C1093.83911,842.909091 1073,822.069981 1073,796.363636 C1073,778.977182 1082.5328,763.817233 1096.6568,755.825393 C1096.4034,753.858795 1096.27273,751.853748 1096.27273,749.818182 C1096.27273,724.111837 1117.11184,703.272727 1142.81818,703.272727 C1148.26063,703.272727 1153.48491,704.206814 1158.33946,705.923417 C1171.13923,690.110069 1190.70713,680 1212.63636,680 C1251.19588,680 1282.45455,711.258665 1282.45455,749.818182 C1308.16089,749.818182 1329,770.657292 1329,796.363636 C1329,822.069981 1308.16089,842.909091 1282.45455,842.909091 L1119.54545,842.909091 Z M1209.89924,711.512349 C1206.0765,708.922754 1200.774,702.75705 1196.33469,697.454545 C1195.47149,705.963216 1192.8819,709.41601 1189.92236,711.882291 C1183.63334,716.814854 1179.68729,718.294622 1174.26147,721.25416 C1169.69885,723.597127 1144.91273,738.394815 1144.91273,770.209844 C1144.91273,802.024873 1171.67188,825.454545 1201.39057,825.454545 C1231.10926,825.454545 1256.8819,803.874584 1256.8819,771.196357 C1256.8819,738.518129 1232.71234,723.720441 1228.76629,721.25416 C1222.23065,717.184796 1216.06494,715.581713 1209.89924,711.512349 Z M1225.34657,767.526316 C1225.34657,765.970929 1225.18684,764.462262 1224.90928,762.986689 L1235.675,754.545942 L1229.58799,744.010582 L1216.88222,749.108902 C1214.59545,747.139849 1211.93275,745.600036 1209.0256,744.577062 L1207.08555,731.026316 L1194.91153,731.026316 L1192.97538,744.573169 C1190.06822,745.596142 1187.40552,747.135956 1185.11876,749.101116 L1172.41201,744.002796 L1166.325,754.538156 L1177.0917,762.982796 C1176.81023,764.458369 1176.65051,765.970929 1176.65051,767.526316 C1176.65051,769.081702 1176.81023,770.590369 1177.0878,772.065942 L1166.325,780.506689 L1172.41201,791.045942 L1185.11876,785.947622 C1187.40552,787.916676 1190.06822,789.452596 1192.97538,790.475569 L1194.91153,804.026316 L1207.08555,804.026316 L1209.0217,790.479462 C1211.92886,789.456489 1214.59156,787.916676 1216.88222,785.947622 L1229.58799,791.045942 L1235.675,780.510582 L1224.90928,772.065942 C1225.18684,770.590369 1225.34657,769.081702 1225.34657,767.526316 Z M1200.38015,780.049592 C1193.77803,780.049592 1188.42326,774.694815 1188.42326,768.092695 C1188.42326,761.490575 1193.77803,756.135799 1200.38015,756.135799 C1206.98227,756.135799 1212.33705,761.490575 1212.33705,768.092695 C1212.33705,774.694815 1206.98227,780.049592 1200.38015,780.049592 Z" id="Replication"></path>
        </g>
    </g>
</svg>