<?xml version="1.0" encoding="UTF-8" standalone="no"?>
<svg width="256px" height="163px" viewBox="0 0 256 163" version="1.1" xmlns="http://www.w3.org/2000/svg" xmlns:xlink="http://www.w3.org/1999/xlink">
    <!-- Generator: Sketch 3.6.1 (26313) - http://www.bohemiancoding.com/sketch -->
    <title>Deploy</title>
    <desc>Created with Sketch.</desc>
    <defs></defs>
    <g id="Page-1" stroke="none" stroke-width="1" fill="none" fill-rule="evenodd">
        <g id="final" transform="translate(-674.000000, -280.000000)" fill="#0678BE">
            <path d="M720.545455,442.909091 C694.83911,442.909091 674,422.069981 674,396.363636 C674,378.977182 683.532802,363.817233 697.656801,355.825393 C697.403395,353.858795 697.272727,351.853748 697.272727,349.818182 C697.272727,324.111837 718.111837,303.272727 743.818182,303.272727 C749.260632,303.272727 754.484914,304.206814 759.339456,305.923417 C772.139232,290.110069 791.707131,280 813.636364,280 C852.195881,280 883.454545,311.258665 883.454545,349.818182 C909.16089,349.818182 930,370.657292 930,396.363636 C930,422.069981 909.16089,442.909091 883.454545,442.909091 L720.545455,442.909091 Z M810.89924,311.512349 C807.076504,308.922754 801.773999,302.75705 797.334693,297.454545 C796.471494,305.963216 793.881899,309.41601 790.922361,311.882291 C784.633344,316.814854 780.687294,318.294622 775.261475,321.25416 C770.698854,323.597127 745.912727,338.394815 745.912727,370.209844 C745.912727,402.024873 772.671879,425.454545 802.390569,425.454545 C832.109259,425.454545 857.881899,403.874584 857.881899,371.196357 C857.881899,338.518129 833.712342,323.720441 829.766292,321.25416 C823.230646,317.184796 817.064943,315.581713 810.89924,311.512349 Z M802,332.363636 L836.909091,367.396959 L767.090909,367.396959 L802,332.363636 Z M784.483339,367.396959 L819.516661,367.396959 L819.516661,402.430282 L784.483339,402.430282 L784.483339,367.396959 Z" id="Deploy"></path>
        </g>
    </g>
</svg>