<?xml version="1.0" encoding="UTF-8" standalone="no"?>
<svg width="256px" height="163px" viewBox="0 0 256 163" version="1.1" xmlns="http://www.w3.org/2000/svg" xmlns:xlink="http://www.w3.org/1999/xlink">
    <!-- Generator: Sketch 3.6.1 (26313) - http://www.bohemiancoding.com/sketch -->
    <title>Conflict</title>
    <desc>Created with Sketch.</desc>
    <defs></defs>
    <g id="Page-1" stroke="none" stroke-width="1" fill="none" fill-rule="evenodd">
        <g id="final" transform="translate(-1868.000000, -276.000000)" fill="#0678BE">
            <path d="M1914.54545,438.909091 C1888.83911,438.909091 1868,418.069981 1868,392.363636 C1868,374.977182 1877.5328,359.817233 1891.6568,351.825393 C1891.4034,349.858795 1891.27273,347.853748 1891.27273,345.818182 C1891.27273,320.111837 1912.11184,299.272727 1937.81818,299.272727 C1943.26063,299.272727 1948.48491,300.206814 1953.33946,301.923417 C1966.13923,286.110069 1985.70713,276 2007.63636,276 C2046.19588,276 2077.45455,307.258665 2077.45455,345.818182 C2103.16089,345.818182 2124,366.657292 2124,392.363636 C2124,418.069981 2103.16089,438.909091 2077.45455,438.909091 L1914.54545,438.909091 Z M2023.76629,317.25416 C2017.23065,313.184796 2011.06494,311.581713 2004.89924,307.512349 C2001.0765,304.922754 1995.774,298.75705 1991.33469,293.454545 C1990.47149,301.963216 1987.8819,305.41601 1984.92236,307.882291 C1978.63334,312.814854 1974.68729,314.294622 1969.26147,317.25416 C1964.69885,319.597127 1939.91273,334.394815 1939.91273,366.209844 C1939.91273,398.024873 1966.67188,421.454545 1996.39057,421.454545 C2026.10926,421.454545 2051.8819,399.874584 2051.8819,367.196357 C2051.8819,334.518129 2027.71234,319.720441 2023.76629,317.25416 Z M1982.01007,379.580537 C1984.02349,380.307606 1985.68736,381.579978 1987.00168,383.397651 C1988.316,385.215324 1988.97315,387.242729 1988.97315,389.479866 C1988.97315,392.388143 1987.95246,394.862975 1985.91107,396.904362 C1983.86969,398.945749 1981.39485,399.966443 1978.48658,399.966443 C1975.5783,399.966443 1973.10347,398.945749 1971.06208,396.904362 C1969.02069,394.862975 1968,392.388143 1968,389.479866 C1968,387.242729 1968.65716,385.215324 1969.97148,383.397651 C1971.28579,381.579978 1972.94966,380.307606 1974.96309,379.580537 L1974.96309,377.231544 C1974.96309,372.869128 1976.6689,369.149888 1980.08054,366.073826 C1982.26174,367.863535 1984.38702,369.205817 1986.45638,370.100671 C1983.49217,371.834452 1982.01007,374.211409 1982.01007,377.231544 L1982.01007,379.580537 Z M2009.94631,350.385906 C2007.93289,349.658837 2006.26902,348.386465 2004.9547,346.568792 C2003.64038,344.751119 2002.98322,342.723714 2002.98322,340.486577 C2002.98322,337.5783 2004.00391,335.103468 2006.0453,333.062081 C2008.08669,331.020694 2010.56152,330 2013.4698,330 C2016.37808,330 2018.85291,331.020694 2020.8943,333.062081 C2022.93568,335.103468 2023.95638,337.5783 2023.95638,340.486577 C2023.95638,342.723714 2023.29922,344.751119 2021.9849,346.568792 C2020.67058,348.386465 2018.97875,349.658837 2016.9094,350.385906 L2016.9094,351.560403 C2016.9094,356.258389 2015.14765,360.285235 2011.62416,363.64094 C2009.66667,362.019016 2007.54139,360.760626 2005.24832,359.865772 C2008.38031,357.908277 2009.94631,355.139821 2009.94631,351.560403 L2009.94631,350.385906 Z M2016.74161,379.580537 C2018.86689,380.251678 2020.60067,381.496085 2021.94295,383.313758 C2023.28523,385.131432 2023.95638,387.186801 2023.95638,389.479866 C2023.95638,392.388143 2022.93568,394.862975 2020.8943,396.904362 C2018.85291,398.945749 2016.37808,399.966443 2013.4698,399.966443 C2010.56152,399.966443 2008.08669,398.945749 2006.0453,396.904362 C2004.00391,394.862975 2002.98322,392.388143 2002.98322,389.479866 C2002.98322,387.298658 2003.59843,385.313199 2004.82886,383.52349 C2006.05928,381.733781 2007.68121,380.447427 2009.69463,379.66443 C2009.07942,376.47651 2007.47148,373.819911 2004.87081,371.694631 C2002.27013,369.569351 1999.29195,368.506711 1995.93624,368.506711 C1990.67897,368.506711 1986.09284,366.772931 1982.17785,363.305369 C1978.26286,359.837808 1975.94183,355.53132 1975.21477,350.385906 C1973.08949,349.714765 1971.3557,348.470358 1970.01342,346.652685 C1968.67114,344.835011 1968,342.779642 1968,340.486577 C1968,337.5783 1969.02069,335.103468 1971.06208,333.062081 C1973.10347,331.020694 1975.5783,330 1978.48658,330 C1981.39485,330 1983.86969,331.020694 1985.91107,333.062081 C1987.95246,335.103468 1988.97315,337.5783 1988.97315,340.486577 C1988.97315,342.667785 1988.35794,344.653244 1987.12752,346.442953 C1985.89709,348.232662 1984.27517,349.519016 1982.26174,350.302013 C1982.87696,353.489933 1984.47092,356.146532 1987.04362,358.271812 C1989.61633,360.397092 1992.58054,361.459732 1995.93624,361.459732 C2001.19351,361.459732 2005.79362,363.207494 2009.73658,366.70302 C2013.67953,370.198546 2016.01454,374.491051 2016.74161,379.580537 Z" id="Conflict"></path>
        </g>
    </g>
</svg>