<?xml version="1.0" encoding="UTF-8" standalone="no"?>
<svg width="256px" height="163px" viewBox="0 0 256 163" version="1.1" xmlns="http://www.w3.org/2000/svg" xmlns:xlink="http://www.w3.org/1999/xlink">
    <!-- Generator: Sketch 3.6.1 (26313) - http://www.bohemiancoding.com/sketch -->
    <title>Workspace</title>
    <desc>Created with Sketch.</desc>
    <defs></defs>
    <g id="Page-1" stroke="none" stroke-width="1" fill="none" fill-rule="evenodd">
        <g id="final" transform="translate(-1073.000000, -280.000000)" fill="#0678BE">
            <path d="M1224.24727,388.589091 L1231.88364,388.589091 L1231.88364,335.061818 L1185.33818,335.061818 L1185.33818,342.698182 L1224.24727,342.698182 L1224.24727,388.589091 Z M1119.54545,442.909091 C1093.83911,442.909091 1073,422.069981 1073,396.363636 C1073,378.977182 1082.5328,363.817233 1096.6568,355.825393 C1096.4034,353.858795 1096.27273,351.853748 1096.27273,349.818182 C1096.27273,324.111837 1117.11184,303.272727 1142.81818,303.272727 C1148.26063,303.272727 1153.48491,304.206814 1158.33946,305.923417 C1171.13923,290.110069 1190.70713,280 1212.63636,280 C1251.19588,280 1282.45455,311.258665 1282.45455,349.818182 C1308.16089,349.818182 1329,370.657292 1329,396.363636 C1329,422.069981 1308.16089,442.909091 1282.45455,442.909091 L1119.54545,442.909091 Z M1228.76629,321.25416 C1222.23065,317.184796 1216.06494,315.581713 1209.89924,311.512349 C1206.0765,308.922754 1200.774,302.75705 1196.33469,297.454545 C1195.47149,305.963216 1192.8819,309.41601 1189.92236,311.882291 C1183.63334,316.814854 1179.68729,318.294622 1174.26147,321.25416 C1169.69885,323.597127 1144.91273,338.394815 1144.91273,370.209844 C1144.91273,402.024873 1171.67188,425.454545 1201.39057,425.454545 C1231.10926,425.454545 1256.8819,403.874584 1256.8819,371.196357 C1256.8819,338.518129 1232.71234,323.720441 1228.76629,321.25416 Z M1169.88364,350.516364 L1216.42909,350.516364 L1216.42909,404.043636 L1169.88364,404.043636 L1169.88364,350.516364 Z" id="Workspace"></path>
        </g>
    </g>
</svg>