<?xml version="1.0" encoding="UTF-8" standalone="no"?>
<svg width="256px" height="163px" viewBox="0 0 256 163" version="1.1" xmlns="http://www.w3.org/2000/svg" xmlns:xlink="http://www.w3.org/1999/xlink">
    <!-- Generator: Sketch 3.6.1 (26313) - http://www.bohemiancoding.com/sketch -->
    <title>Trash</title>
    <desc>Created with Sketch.</desc>
    <defs></defs>
    <g id="Page-1" stroke="none" stroke-width="1" fill="none" fill-rule="evenodd">
        <g id="final" transform="translate(-1473.000000, -680.000000)" fill="#0678BE">
            <path d="M1473,796.363636 C1473,778.977182 1482.5328,763.817233 1496.6568,755.825393 C1496.4034,753.858795 1496.27273,751.853748 1496.27273,749.818182 C1496.27273,724.111837 1517.11184,703.272727 1542.81818,703.272727 C1548.26063,703.272727 1553.48491,704.206814 1558.33946,705.923417 C1571.13923,690.110069 1590.70713,680 1612.63636,680 C1651.19588,680 1682.45455,711.258665 1682.45455,749.818182 C1708.16089,749.818182 1729,770.657292 1729,796.363636 C1729,822.069981 1708.16089,842.909091 1682.45455,842.909091 L1519.54545,842.909091 C1493.83911,842.909091 1473,822.069981 1473,796.363636 Z M1609.89924,711.512349 C1606.0765,708.922754 1600.774,702.75705 1596.33469,697.454545 C1595.47149,705.963216 1592.8819,709.41601 1589.92236,711.882291 C1583.63334,716.814854 1579.68729,718.294622 1574.26147,721.25416 C1569.69885,723.597127 1544.91273,738.394815 1544.91273,770.209844 C1544.91273,802.024873 1571.67188,825.454545 1601.39057,825.454545 C1631.10926,825.454545 1656.8819,803.874584 1656.8819,771.196357 C1656.8819,738.518129 1632.71234,723.720441 1628.76629,721.25416 C1622.23065,717.184796 1616.06494,715.581713 1609.89924,711.512349 Z M1630.625,742.523 L1630.625,748.375 L1626.199,748.375 L1626.199,790.523 C1626.199,796.449 1621.472,801.097 1615.398,801.097 L1586.449,801.097 C1580.301,801.097 1575.5,796.449 1575.5,790.523 L1575.5,748.375 L1571,748.375 L1571,742.523 L1586,742.523 L1586,739 C1586,735.699 1588.699,733 1592,733 L1609.851,733 C1613.152,733 1615.851,735.699 1615.851,739 L1615.851,742.523 L1630.625,742.523 Z M1609.847,785.574 L1609.847,758.125 C1609.847,756.55 1611.121,755.199 1612.773,755.199 C1614.422,755.199 1615.699,756.472 1615.699,758.125 L1615.699,785.574 C1615.699,787.148 1614.426,788.5 1612.773,788.5 C1611.125,788.5 1609.847,787.148 1609.847,785.574 Z M1588.773,788.421 C1590.347,788.421 1591.699,787.148 1591.699,785.496 L1591.699,758.125 C1591.699,756.55 1590.426,755.199 1588.773,755.199 C1587.125,755.199 1585.847,756.472 1585.847,758.125 L1585.847,785.574 C1585.847,787.148 1587.125,788.421 1588.773,788.421 Z M1591.699,739 L1591.699,742.523 L1609.847,742.523 L1609.847,739 C1609.847,738.925 1609.773,738.851 1609.699,738.851 L1591.847,738.851 C1591.773,738.921 1591.699,739 1591.699,739 Z M1600.699,788.421 L1600.773,788.421 C1602.347,788.421 1603.699,787.148 1603.699,785.496 L1603.699,758.125 C1603.699,756.55 1602.426,755.199 1600.773,755.199 L1600.699,755.199 C1599.125,755.199 1597.773,756.472 1597.773,758.125 L1597.773,785.574 C1597.847,787.148 1599.125,788.421 1600.699,788.421 Z" id="Trash"></path>
        </g>
    </g>
</svg>