<?xml version="1.0" encoding="UTF-8" standalone="no"?>
<svg width="256px" height="163px" viewBox="0 0 256 163" version="1.1" xmlns="http://www.w3.org/2000/svg" xmlns:xlink="http://www.w3.org/1999/xlink">
    <!-- Generator: Sketch 3.6.1 (26313) - http://www.bohemiancoding.com/sketch -->
    <title>Workbench Moderation</title>
    <desc>Created with Sketch.</desc>
    <defs></defs>
    <g id="Page-1" stroke="none" stroke-width="1" fill="none" fill-rule="evenodd">
        <g id="final" transform="translate(-1473.000000, -280.000000)" fill="#0678BE">
            <path d="M1519.54545,442.909091 C1493.83911,442.909091 1473,422.069981 1473,396.363636 C1473,378.977182 1482.5328,363.817233 1496.6568,355.825393 C1496.4034,353.858795 1496.27273,351.853748 1496.27273,349.818182 C1496.27273,324.111837 1517.11184,303.272727 1542.81818,303.272727 C1548.26063,303.272727 1553.48491,304.206814 1558.33946,305.923417 C1571.13923,290.110069 1590.70713,280 1612.63636,280 C1651.19588,280 1682.45455,311.258665 1682.45455,349.818182 C1708.16089,349.818182 1729,370.657292 1729,396.363636 C1729,422.069981 1708.16089,442.909091 1682.45455,442.909091 L1519.54545,442.909091 Z M1609.89924,311.512349 C1606.0765,308.922754 1600.774,302.75705 1596.33469,297.454545 C1595.47149,305.963216 1592.8819,309.41601 1589.92236,311.882291 C1583.63334,316.814854 1579.68729,318.294622 1574.26147,321.25416 C1569.69885,323.597127 1544.91273,338.394815 1544.91273,370.209844 C1544.91273,402.024873 1571.67188,425.454545 1601.39057,425.454545 C1631.10926,425.454545 1656.8819,403.874584 1656.8819,371.196357 C1656.8819,338.518129 1632.71234,323.720441 1628.76629,321.25416 C1622.23065,317.184796 1616.06494,315.581713 1609.89924,311.512349 Z M1601,334 C1581.66859,334 1566,349.668593 1566,369 C1566,388.331407 1581.66859,404 1601,404 C1620.33141,404 1636,388.331407 1636,369 C1636,349.668593 1620.33141,334 1601,334 Z M1602.70593,380.687407 L1594.45733,388.939111 L1575.9203,370.397926 L1584.16889,362.15037 L1594.45733,372.438815 L1617.83111,349.065037 L1626.0797,357.312593 L1602.70593,380.687407 Z" id="Workbench-Moderation"></path>
        </g>
    </g>
</svg>